<mxfile host="app.diagrams.net" modified="2021-12-25T15:41:03.682Z" agent="5.0 (Macintosh; Intel Mac OS X 10_15_7) AppleWebKit/605.1.15 (KHTML, like Gecko) Version/15.1 Safari/605.1.15" etag="FD-SigJ-VpybGNtA18Nj" version="16.1.0" type="github">
  <diagram id="PsCKxNWWEZMX_S2bdYtZ" name="Page-1">
    <mxGraphModel dx="770" dy="549" grid="1" gridSize="10" guides="1" tooltips="1" connect="1" arrows="1" fold="1" page="1" pageScale="1" pageWidth="850" pageHeight="1100" math="0" shadow="0">
      <root>
        <mxCell id="0" />
        <mxCell id="1" parent="0" />
        <mxCell id="6OiCWqiK4BMqnp4VZ83I-1" value="Top" style="rounded=0;whiteSpace=wrap;html=1;" vertex="1" parent="1">
          <mxGeometry x="160" y="60" width="120" height="60" as="geometry" />
        </mxCell>
        <mxCell id="6OiCWqiK4BMqnp4VZ83I-2" value="" style="endArrow=classic;startArrow=classic;html=1;rounded=0;exitX=0.45;exitY=-0.067;exitDx=0;exitDy=0;exitPerimeter=0;" edge="1" parent="1" source="6OiCWqiK4BMqnp4VZ83I-3">
          <mxGeometry width="50" height="50" relative="1" as="geometry">
            <mxPoint x="199" y="240" as="sourcePoint" />
            <mxPoint x="214" y="120" as="targetPoint" />
          </mxGeometry>
        </mxCell>
        <mxCell id="6OiCWqiK4BMqnp4VZ83I-3" value="Bottom" style="rounded=0;whiteSpace=wrap;html=1;" vertex="1" parent="1">
          <mxGeometry x="160" y="240" width="120" height="60" as="geometry" />
        </mxCell>
      </root>
    </mxGraphModel>
  </diagram>
</mxfile>
